<svg xmlns="http://www.w3.org/2000/svg" class="hidden-sprite" aria-hidden="true">

<symbol id="icon-facebookregister" viewBox="0 0 10 20">
  <path d="M8.175 3.32083H10.0008V0.140833C9.68583 0.0975 8.6025 0 7.34083 0C1.56417 0 3.13583 6.54167 2.90583 7.5H0V11.055H2.905V20H6.46667V11.0558H9.25417L9.69667 7.50083H6.46583C6.6225 5.1475 5.83167 3.32083 8.175 3.32083Z" fill="#3B5999"/>
</symbol>

<symbol id="icon-googleregister" viewBox="0 0 20 20">
  <g clip-path="url(#clip0_2_2044)">
    <path d="M16.4336 17.6055C14.6992 19.0703 12.4492 20 9.99999 20C6.35545 20 3.1562 17.9922 1.42186 15.0625L2.07116 12.0695L4.9492 11.5352C5.61717 13.6914 7.63276 15.2734 9.99999 15.2734C11.1484 15.2734 12.2148 14.9102 13.0937 14.2656L15.8594 14.6875L16.4336 17.6055Z" fill="#59C36A"/>
    <path d="M16.4336 17.6055L15.8594 14.6875L13.0937 14.2656C12.2148 14.9102 11.1484 15.2735 10 15.2735V20C12.4493 20 14.6992 19.0703 16.4336 17.6055Z" fill="#00A66C"/>
    <path d="M4.72656 10C4.72656 10.539 4.8086 11.0546 4.94922 11.5352L1.42188 15.0625C0.542969 13.5859 0 11.8515 0 10C0 8.1484 0.542969 6.41406 1.42188 4.9375L4.25285 5.42473L4.94922 8.46484C4.8086 8.94527 4.72656 9.4609 4.72656 10Z" fill="#FFDA2D"/>
    <path d="M20 10C20 13.0468 18.5899 15.7773 16.4336 17.6055L13.0938 14.2656C13.7734 13.7734 14.3477 13.1171 14.7227 12.3437H10C9.67184 12.3437 9.41406 12.0859 9.41406 11.7578V8.24219C9.41406 7.91402 9.67184 7.65625 10 7.65625H19.25C19.5312 7.65625 19.7773 7.85543 19.8242 8.13668C19.9414 8.74609 20 9.37887 20 10Z" fill="#4086F4"/>
    <path d="M14.7227 12.3437C14.3477 13.1171 13.7734 13.7734 13.0938 14.2656L16.4336 17.6055C18.5899 15.7773 20 13.0469 20 10C20 9.37887 19.9414 8.74609 19.8242 8.13668C19.7773 7.85543 19.5312 7.65625 19.25 7.65625H10V12.3437H14.7227Z" fill="#4175DF"/>
    <path d="M16.5976 2.79293C16.6094 2.95699 16.5391 3.10937 16.4336 3.22652L13.9258 5.72262C13.7266 5.93355 13.3985 5.95699 13.1641 5.78121C12.2382 5.08984 11.1484 4.72656 9.99999 4.72656C7.63276 4.72656 5.61717 6.30855 4.9492 8.46484L1.42186 4.9375C3.1562 2.00781 6.35546 0 9.99999 0C12.332 0 14.6055 0.859375 16.3867 2.35934C16.5156 2.46484 16.5859 2.62887 16.5976 2.79293Z" fill="#FF641A"/>
    <path d="M13.1641 5.78121C13.3984 5.95703 13.7265 5.93355 13.9257 5.72262L16.4336 3.22652C16.5391 3.10938 16.6094 2.95703 16.5976 2.79293C16.5859 2.62883 16.5156 2.46484 16.3867 2.35934C14.6055 0.859375 12.332 0 10 0V4.72656C11.1484 4.72656 12.2382 5.08984 13.1641 5.78121Z" fill="#F03800"/>
  </g>
  <defs>  
    <clipPath id="clip0_2_2044">
      <rect width="20" height="20" fill="white"/>
    </clipPath>
  </defs>
</symbol>

<symbol id="icon-hide-icon" viewBox="0 0 17 15">
  <path d="M3.80833 11.9832C1.95 10.7666 0.75 8.93324 0.75 7.32491C0.75 4.59158 4.2 1.24158 8.45833 1.24158C10.2 1.24158 11.8167 1.79991 13.1167 2.66658" stroke="#727272" stroke-width="1.5" stroke-linecap="round" stroke-linejoin="round" fill="none"/>
  <path d="M14.9998 4.38358C15.7423 5.32525 16.1748 6.36691 16.1748 7.32525C16.1748 10.0586 12.7164 13.4086 8.45809 13.4086C7.69975 13.4086 6.95892 13.3002 6.26642 13.1086" stroke="#727272" stroke-width="1.5" stroke-linecap="round" stroke-linejoin="round" fill="none"/>
  <path d="M6.59642 9.18091C6.10059 8.69008 5.82309 8.02091 5.82559 7.32341C5.82225 5.86925 6.99892 4.68758 8.45392 4.68508C9.15392 4.68341 9.82559 4.96091 10.3206 5.45591" stroke="#727272" stroke-width="1.5" stroke-linecap="round" stroke-linejoin="round" fill="none"/>
  <path d="M11.0496 7.791C10.8546 8.86766 10.0121 9.71183 8.93542 9.90933" stroke="#727272" stroke-width="1.5" stroke-linecap="round" stroke-linejoin="round" fill="none"/>
  <path d="M15.0348 0.75L1.88976 13.895" stroke="#727272" stroke-width="1.5" stroke-linecap="round" stroke-linejoin="round" />
</symbol>

<symbol id="icon-close-vector" viewBox="0 0 12 12">
  <path fill-rule="evenodd" clip-rule="evenodd" d="M0.170067 0.170067C0.396823 -0.056689 0.764467 -0.056689 0.991223 0.170067L6 5.17884L11.0088 0.170067C11.2355 -0.056689 11.6032 -0.056689 11.8299 0.170067C12.0567 0.396823 12.0567 0.764467 11.8299 0.991223L6.82116 6L11.8299 11.0088C12.0567 11.2355 12.0567 11.6032 11.8299 11.8299C11.6032 12.0567 11.2355 12.0567 11.0088 11.8299L6 6.82116L0.991223 11.8299C0.764467 12.0567 0.396823 12.0567 0.170067 11.8299C-0.056689 11.6032 -0.056689 11.2355 0.170067 11.0088L5.17884 6L0.170067 0.991223C-0.056689 0.764467 -0.056689 0.396823 0.170067 0.170067Z" fill="currentColor" />
</symbol>

<symbol id="icon-calling" viewBox="0 0 18 18">
  <path d="M11.0436 0.750061C14.1277 1.09256 16.5644 3.52589 16.9111 6.61006" stroke="#46A358" stroke-width="1.5" stroke-linecap="round" stroke-linejoin="round" fill="none"/>
  <path d="M11.0436 3.70256C12.5194 3.98923 13.6727 5.14339 13.9602 6.61923" stroke="#46A358" stroke-width="1.5" stroke-linecap="round" stroke-linejoin="round" fill="none"/>
  <path fill-rule="evenodd" clip-rule="evenodd" d="M5.50028 12.0408C-0.248036 6.29182 0.569362 3.65926 1.17533 2.81093C1.25318 2.67382 3.17194 -0.198469 5.2287 1.48669C10.3339 5.69118 3.8708 5.09673 8.15771 9.38437C12.4455 13.6711 11.8501 7.20826 16.0548 12.3124C17.74 14.37 14.8676 16.2886 14.7314 16.3656C13.883 16.9724 11.2495 17.7898 5.50028 12.0408Z" stroke="#46A358" stroke-width="1.5" stroke-linecap="round" stroke-linejoin="round" fill="none"/>
</symbol>

<symbol id="icon-location" viewBox="0 0 14 17">
  <path fill-rule="evenodd" clip-rule="evenodd" d="M9.09184 7.17542C9.09184 6.02436 8.15914 5.09166 7.00808 5.09166C5.85787 5.09166 4.92517 6.02436 4.92517 7.17542C4.92517 8.32563 5.85787 9.25833 7.00808 9.25833C8.15914 9.25833 9.09184 8.32563 9.09184 7.17542Z" stroke="#46A358" stroke-width="1.5" stroke-linecap="round" stroke-linejoin="round" fill="none"/>
  <path fill-rule="evenodd" clip-rule="evenodd" d="M6.99959 15.75C4.58457 15.75 0.75 11.5489 0.75 7.0822C0.75 3.58539 3.54758 0.75 6.99959 0.75C10.4516 0.75 13.25 3.58539 13.25 7.0822C13.25 11.5489 9.41543 15.75 6.99959 15.75Z" stroke="#46A358" stroke-width="1.5" stroke-linecap="round" stroke-linejoin="round" fill="none"/>
</symbol>

<symbol id="icon-message" viewBox="0 0 18 17">
  <path d="M13.3274 5.88918C13.3274 5.88918 10.6523 9.0997 8.69578 9.0997C6.74005 9.0997 4.03496 5.88918 4.03496 5.88918" stroke="#46A358" stroke-width="1.5" stroke-linecap="round" stroke-linejoin="round" fill="none"/>
  <path fill-rule="evenodd" clip-rule="evenodd" d="M0.75 8.34733C0.75 2.64891 2.73413 0.75 8.68651 0.75C14.6389 0.75 16.623 2.64891 16.623 8.34733C16.623 14.0449 14.6389 15.9447 8.68651 15.9447C2.73413 15.9447 0.75 14.0449 0.75 8.34733Z" stroke="#46A358" stroke-width="1.5" stroke-linecap="round" stroke-linejoin="round" fill="none"/>
</symbol>

<symbol id="icon-facebook" viewBox="0 0 8 16">
  <path d="M2 5.33333H0V8H2V16H5.33333V8H7.73333L8 5.33333H5.33333V4.2C5.33333 3.6 5.46667 3.33333 6.06667 3.33333H8V0H5.46667C3.06667 0 2 1.06667 2 3.06667V5.33333Z" fill="#46A358" fill-opacity="0.6"/>
</symbol>

<symbol id="icon-instagram" viewBox="0 0 16 16">
  <path d="M8 1.46667C10.1333 1.46667 10.4 1.46667 11.2667 1.53333C13.4667 1.6 14.4667 2.66667 14.5333 4.8C14.6 5.66667 14.6 5.86667 14.6 8C14.6 10.1333 14.6 10.4 14.5333 11.2C14.4667 13.3333 13.4 14.4 11.2667 14.4667C10.4 14.5333 10.2 14.5333 8 14.5333C5.86667 14.5333 5.6 14.5333 4.8 14.4667C2.6 14.4 1.6 13.3333 1.53333 11.2C1.46667 10.3333 1.46667 10.1333 1.46667 8C1.46667 5.86667 1.46667 5.6 1.53333 4.8C1.6 2.66667 2.66667 1.6 4.8 1.53333C5.6 1.46667 5.86667 1.46667 8 1.46667ZM8 0C5.8 0 5.53333 0 4.73333 0.0666667C1.8 0.2 0.2 1.8 0.0666667 4.73333C0 5.53333 0 5.8 0 8C0 10.2 0 10.4667 0.0666667 11.2667C0.2 14.2 1.8 15.8 4.73333 15.9333C5.53333 16 5.8 16 8 16C10.2 16 10.4667 16 11.2667 15.9333C14.2 15.8 15.8 14.2 15.9333 11.2667C16 10.4667 16 10.2 16 8C16 5.8 16 5.53333 15.9333 4.73333C15.8 1.8 14.2 0.2 11.2667 0.0666667C10.4667 0 10.2 0 8 0ZM8 3.86667C5.73333 3.86667 3.86667 5.73333 3.86667 8C3.86667 10.2667 5.73333 12.1333 8 12.1333C10.2667 12.1333 12.1333 10.2667 12.1333 8C12.1333 5.73333 10.2667 3.86667 8 3.86667ZM8 10.6667C6.53333 10.6667 5.33333 9.46667 5.33333 8C5.33333 6.53333 6.53333 5.33333 8 5.33333C9.46667 5.33333 10.6667 6.53333 10.6667 8C10.6667 9.46667 9.46667 10.6667 8 10.6667ZM12.2667 2.8C11.7333 2.8 11.3333 3.2 11.3333 3.73333C11.3333 4.26667 11.7333 4.66667 12.2667 4.66667C12.8 4.66667 13.2 4.26667 13.2 3.73333C13.2 3.2 12.8 2.8 12.2667 2.8Z" fill="#46A358" fill-opacity="0.6"/>
</symbol>

<symbol id="icon-linkedin" viewBox="0 0 16 16">
  <path d="M3.33333 1.66667C3.33333 2.6 2.6 3.33333 1.66667 3.33333C0.733333 3.33333 0 2.6 0 1.66667C0 0.733333 0.733333 0 1.66667 0C2.6 0 3.33333 0.733333 3.33333 1.66667ZM3.33333 4.66667H0V15.3333H3.33333V4.66667ZM8.66667 4.66667H5.33333V15.3333H8.66667V9.73333C8.66667 6.6 12.6667 6.33333 12.6667 9.73333V15.3333H16V8.6C16 3.33333 10.0667 3.53333 8.66667 6.13333V4.66667Z" fill="#46A358" fill-opacity="0.6"/>
</symbol>

<symbol id="icon-twitter" viewBox="0 0 16 13">
  <path d="M5.03186 13.0036C11.0699 13.0036 14.3718 8.00118 14.3718 3.66357C14.3718 3.52144 14.3689 3.38005 14.3624 3.2392C15.0033 2.77588 15.5605 2.19756 16 1.53953C15.4118 1.80085 14.7789 1.97682 14.1149 2.05616C14.7926 1.64981 15.313 1.0067 15.5585 0.24021C14.9241 0.616357 14.2217 0.889688 13.4742 1.03709C12.8749 0.399076 12.0218 0 11.0779 0C9.26483 0 7.79464 1.4702 7.79464 3.28233C7.79464 3.54001 7.82357 3.79041 7.87962 4.0308C5.1516 3.89377 2.73239 2.58735 1.11352 0.601253C0.831273 1.08622 0.668767 1.64999 0.668767 2.25106C0.668767 3.38988 1.24837 4.3953 2.12968 4.98363C1.59121 4.96707 1.08531 4.81894 0.642926 4.57291C0.642198 4.58656 0.642198 4.60039 0.642198 4.61476C0.642198 6.2047 1.77392 7.53204 3.27578 7.83285C3.00008 7.90801 2.71001 7.94841 2.41047 7.94841C2.19901 7.94841 1.99338 7.9273 1.79339 7.88927C2.21121 9.19332 3.42318 10.1425 4.86007 10.1693C3.73636 11.0499 2.32094 11.5745 0.783049 11.5745C0.518272 11.5745 0.256952 11.5594 0 11.529C1.45273 12.46 3.17769 13.0036 5.03186 13.0036Z" fill="#46A358" fill-opacity="0.6"/>
</symbol>

<symbol id="icon-union" viewBox="0 0 19 14">
  <path fill-rule="evenodd" clip-rule="evenodd" d="M15.1653 4.42995L15.168 4.43062C15.168 4.43062 15.1676 4.4305 15.1667 4.4303C15.1663 4.4302 15.1658 4.43008 15.1653 4.42995ZM4.32444 4.35686C6.91762 4.19575 11.7483 4.19575 14.3415 4.35686L14.3422 4.3644C14.4047 4.99716 14.4299 5.84143 14.4299 7.01915C14.4299 8.18238 14.4053 9.02689 14.3441 9.66498C11.6962 9.77026 6.97129 9.77027 4.32282 9.66502C4.261 9.03324 4.23602 8.19137 4.23602 7.01915C4.23602 5.84143 4.26123 4.99716 4.32369 4.3644L4.32444 4.35686ZM15.2422 9.61106C15.2422 9.61109 15.2405 9.61148 15.237 9.61215L15.2422 9.61106ZM3.49794 9.60768L3.50063 9.60836C3.49881 9.60793 3.49792 9.60769 3.49794 9.60768ZM0 7.01915C0 11.8412 0.388873 13.63 3.42208 13.8633C6.22196 14.0189 12.4439 14.0189 15.2438 13.8633C18.277 13.7078 18.6659 11.8412 18.6659 7.01915C18.6659 2.19713 18.277 0.408316 15.2438 0.174993C12.4439 -0.0583309 6.22196 -0.0583309 3.42208 0.174993C0.388873 0.408316 0 2.19713 0 7.01915ZM3.49794 4.43062C3.49792 4.43061 3.49884 4.43037 3.50073 4.42992L3.49794 4.43062ZM9.78228 8.73886C8.50388 9.37806 6.99973 8.44845 6.99973 7.01915C6.99973 5.58986 8.50388 4.66025 9.78228 5.29945C11.1994 6.008 11.1994 8.0303 9.78228 8.73886Z" fill="#46A358" fill-opacity="0.6"/>
</symbol>

<symbol id="icon-logout" viewBox="0 0 18 17">
  <path d="M17.0266 8.55924H6.99243" stroke="white" stroke-width="1.5" stroke-linecap="round" stroke-linejoin="round" fill="none"/>
  <path d="M14.5879 6.12939L17.0279 8.55939L14.5879 10.9894" stroke="white" stroke-width="1.5" stroke-linecap="round" stroke-linejoin="round" fill="none"/>
  <path d="M12.5007 4.81667C12.2257 1.83333 11.1091 0.75 6.6674 0.75C0.749899 0.75 0.749899 2.675 0.749899 8.45833C0.749899 14.2417 0.749899 16.1667 6.6674 16.1667C11.1091 16.1667 12.2257 15.0833 12.5007 12.1" stroke="white" stroke-width="1.5" stroke-linecap="round" stroke-linejoin="round" fill="none"/>
</symbol>

<symbol id="icon-cart-vector" viewBox="0 0 24 24">
  <path d="M17.1558 20.25H9.89066C6.78905 20.25 4.26569 17.7267 4.26569 14.6251V8.85947C4.26569 5.9762 2.82861 3.30739 0.421544 1.72031C-0.0107343 1.43531 -0.130077 0.853876 0.154921 0.421598C0.439919 -0.0107278 1.02131 -0.130118 1.45368 0.154974C2.82776 1.06097 3.94254 2.2559 4.73969 3.63167C4.91195 3.82466 6.30104 5.29699 8.57821 5.29699H19.3738C22.3191 5.24191 24.6245 8.19769 23.8544 11.0406L22.6117 15.9939C21.9829 18.4998 19.7394 20.25 17.1558 20.25ZM5.90415 6.64234C6.06001 7.36238 6.14068 8.10483 6.14068 8.85947V14.6251C6.14068 16.6928 7.82292 18.375 9.89066 18.375H17.1558C18.8782 18.375 20.3739 17.2082 20.793 15.5376L22.0358 10.5844C22.4933 8.89509 21.1233 7.13931 19.3738 7.17198H8.57817C7.54828 7.17198 6.65185 6.94993 5.90415 6.64234ZM9.42191 22.8281C9.42191 22.1809 8.89724 21.6563 8.25004 21.6563C6.69511 21.7182 6.69647 23.9387 8.25004 24C8.89724 24 9.42191 23.4753 9.42191 22.8281ZM18.75 22.8281C18.75 22.1809 18.2253 21.6563 17.5781 21.6563C16.0232 21.7182 16.0245 23.9387 17.5781 24C18.2253 24 18.75 23.4753 18.75 22.8281ZM20.3113 9.98446C20.3113 9.46668 19.8916 9.04697 19.3738 9.04697H8.95316C7.7093 9.09647 7.71023 10.8729 8.95316 10.922H19.3738C19.8916 10.922 20.3113 10.5022 20.3113 9.98446Z" fill="currentColor"/>
</symbol>

<symbol id="icon-search-vector" viewBox="0 0 20 20">
  <path d="M14.5656 16.0023C10.5704 19.1859 4.98549 18.3049 2.02729 14.6536C-0.827886 11.1285 -0.64932 6.04314 2.44811 2.82458C5.64856 -0.50074 10.6802 -0.944658 14.3277 1.78316C15.6345 2.76027 16.6104 4.00337 17.246 5.50807C17.8853 7.02151 18.0795 8.59614 17.8578 10.2201C17.6368 11.8365 16.9918 13.2769 15.9423 14.6212C16.0272 14.6767 16.1178 14.7167 16.1827 14.7816C17.3365 15.9305 18.4859 17.0836 19.6397 18.2325C19.9132 18.5047 20.0493 18.8218 19.9682 19.204C19.8071 19.9644 18.9018 20.2579 18.3211 19.7359C18.0489 19.4918 17.7985 19.2227 17.54 18.9642C16.5923 18.0171 15.6451 17.0693 14.6973 16.1221C14.658 16.0847 14.6168 16.0497 14.5656 16.0023ZM15.9529 8.98636C15.9629 5.12659 12.8468 2.00605 8.97825 2.00043C5.12035 1.99481 2.00669 5.09037 1.98983 8.94765C1.97297 12.8168 5.08289 15.9461 8.96326 15.9642C12.8055 15.9823 15.9429 12.8499 15.9529 8.98636Z" fill="currentColor"/>
</symbol>

<symbol id="icon-wishlist-vector" viewBox="0 0 20 18">
  <path d="M10 17.7936C9.71527 17.7936 9.44077 17.6904 9.22684 17.5031C8.41888 16.7966 7.63992 16.1327 6.95267 15.547L6.94916 15.544C4.93423 13.8269 3.19427 12.3441 1.98364 10.8833C0.630341 9.25034 0 7.70203 0 6.01059C0 4.36722 0.563507 2.8511 1.58661 1.74133C2.62192 0.618439 4.04251 0 5.58716 0C6.74164 0 7.79892 0.36499 8.72955 1.08475C9.19922 1.44806 9.62494 1.8927 10 2.41135C10.3752 1.8927 10.8008 1.44806 11.2706 1.08475C12.2012 0.36499 13.2585 0 14.413 0C15.9575 0 17.3782 0.618439 18.4135 1.74133C19.4366 2.8511 20 4.36722 20 6.01059C20 7.70203 19.3698 9.25034 18.0165 10.8832C16.8059 12.3441 15.0661 13.8268 13.0515 15.5437C12.363 16.1302 11.5828 16.7952 10.773 17.5034C10.5592 17.6904 10.2846 17.7936 10 17.7936ZM5.58716 1.17157C4.37363 1.17157 3.25882 1.65588 2.44781 2.5354C1.62476 3.42819 1.17142 4.66232 1.17142 6.01059C1.17142 7.43317 1.70013 8.70544 2.88559 10.1358C4.03137 11.5184 5.73563 12.9707 7.70889 14.6524L7.71255 14.6555C8.4024 15.2434 9.18442 15.9099 9.99832 16.6216C10.8171 15.9085 11.6003 15.2409 12.2916 14.6521C14.2647 12.9704 15.9688 11.5184 17.1146 10.1358C18.2999 8.70544 18.8286 7.43317 18.8286 6.01059C18.8286 4.66232 18.3752 3.42819 17.5522 2.5354C16.7413 1.65588 15.6264 1.17157 14.413 1.17157C13.524 1.17157 12.7078 1.45416 11.9872 2.01141C11.3449 2.50824 10.8975 3.13629 10.6352 3.57574C10.5003 3.80173 10.2629 3.93661 10 3.93661C9.73709 3.93661 9.49966 3.80173 9.36478 3.57574C9.10263 3.13629 8.65524 2.50824 8.01285 2.01141C7.29218 1.45416 6.47598 1.17157 5.58716 1.17157Z" fill="currentColor"/>
</symbol>

<symbol id="icon-arrow-down" viewBox="0 0 11 7">
  <path d="M10.0833 0.75L5.41667 5.41667L0.75 0.75" stroke="#3D3D3D" stroke-width="1.5" stroke-linecap="round" stroke-linejoin="round"/>
</symbol>

</svg>
