<svg width="100" height="35" viewBox="0 0 100 35" fill="none" xmlns="http://www.w3.org/2000/svg">
<rect width="100" height="35" rx="6" fill="#46A358"/>
<path d="M42.328 23H48.856V21.48H44.024V12.44H42.328V23ZM49.8919 19.064C49.8439 21.288 51.7799 23.224 54.0359 23.176C56.3239 23.224 58.2599 21.288 58.2119 19.064C58.2599 16.84 56.3239 14.92 54.0359 14.968C51.7799 14.936 49.8439 16.808 49.8919 19.064ZM56.4839 19.08C56.4839 20.504 55.4279 21.624 54.0359 21.624C52.6599 21.624 51.6039 20.536 51.6039 19.08C51.6039 17.624 52.6599 16.504 54.0519 16.504C55.4119 16.504 56.4839 17.624 56.4839 19.08ZM66.2979 15.144V16.264C65.7219 15.448 64.7139 14.968 63.5139 14.968C61.3379 14.968 59.6899 16.616 59.6899 18.904C59.6899 21.192 61.3219 22.84 63.5139 22.84C64.6019 22.84 65.5779 22.44 66.1699 21.72V22.28C66.1699 23.752 65.2419 24.52 63.8179 24.52C62.7459 24.52 61.9459 24.104 61.0659 23.4L60.1379 24.568C61.0819 25.448 62.3619 26.056 63.9139 26.056C66.2979 26.056 67.8499 24.664 67.8499 22.184V15.144H66.2979ZM66.1859 18.888C66.1859 19.688 65.9459 20.296 65.4819 20.728C65.0179 21.16 64.4739 21.368 63.8179 21.368C63.1299 21.368 62.5699 21.144 62.1059 20.696C61.6419 20.232 61.4179 19.64 61.4179 18.904C61.4179 18.184 61.6419 17.592 62.1059 17.144C62.5699 16.696 63.1299 16.472 63.8179 16.472C65.1139 16.472 66.1859 17.288 66.1859 18.888ZM70.2785 23H71.9585V15.144H70.2785V23ZM69.9745 12.216C69.9745 12.84 70.4865 13.32 71.1265 13.32C71.7505 13.32 72.2625 12.84 72.2625 12.216C72.2625 11.592 71.7505 11.096 71.1265 11.096C70.4865 11.096 69.9745 11.592 69.9745 12.216ZM81.2519 18.088C81.2519 16.216 80.1479 14.968 78.3079 14.968C77.3319 14.968 76.5479 15.288 75.9559 15.912V15.144H74.3879V23H76.0679V18.312C76.0679 17.24 76.8199 16.488 77.8599 16.488C78.8839 16.488 79.5719 17.224 79.5719 18.312V23H81.2519V18.088Z" fill="white"/>
<path d="M35.1592 17.1006H25.125" stroke="white" stroke-width="1.5" stroke-linecap="round" stroke-linejoin="round"/>
<path d="M32.7203 14.6706L35.1603 17.1006L32.7203 19.5306" stroke="white" stroke-width="1.5" stroke-linecap="round" stroke-linejoin="round"/>
<path d="M30.6332 13.3583C30.3582 10.3749 29.2415 9.2916 24.7998 9.2916C18.8823 9.2916 18.8823 11.2166 18.8823 16.9999C18.8823 22.7833 18.8823 24.7083 24.7998 24.7083C29.2415 24.7083 30.3582 23.6249 30.6332 20.6416" stroke="white" stroke-width="1.5" stroke-linecap="round" stroke-linejoin="round"/>
</svg>
