<svg width="111" height="13" viewBox="0 0 111 13" fill="none" xmlns="http://www.w3.org/2000/svg">
<path d="M6.72821 0.00746564C8.99629 0.00746564 10.848 0.981805 12.0487 2.76068L9.80084 4.67297C8.99629 3.54905 8.02195 2.96687 6.67161 2.96687C4.59354 2.96687 3.2998 4.33337 3.2998 6.41546C3.2998 8.53394 4.66631 9.95705 6.86163 9.95705C8.04216 9.95705 8.98012 9.54467 9.57848 8.85333V8.27116H6.69182V5.49773H12.8007V9.39508C12.2185 10.426 11.3938 11.2508 10.3264 11.8855C9.25908 12.5041 8.05833 12.8235 6.72821 12.8235C3.0168 12.8801 -0.0517884 9.99343 0.000769696 6.41546C-0.0558314 2.85771 3.0168 -0.049135 6.72821 0.00746564Z" fill="#46A358"/>
<path d="M21.9821 12.5937L19.1925 8.75292H17.8623V12.5937H14.6401V0.230469H19.4916C22.2449 0.230469 24.2704 1.91636 24.2704 4.48361C24.2704 5.9997 23.5386 7.25704 22.3217 8.00498L25.5803 12.5937H21.9821ZM17.8583 5.9431H19.5078C20.4053 5.9431 20.9875 5.36092 20.9875 4.48361C20.9875 3.6063 20.4053 3.04029 19.5078 3.04029H17.8583V5.9431Z" fill="#46A358"/>
<path d="M26.8577 0.230469H35.4368V3.13328H30.0799V4.83938H33.9005V7.536H30.0799V9.69087H35.6632V12.5937H26.8577V0.230469Z" fill="#46A358"/>
<path d="M37.6686 0.230469H46.2476V3.13328H40.8908V4.83938H44.7113V7.536H40.8908V9.69087H46.474V12.5937H37.6686V0.230469Z" fill="#46A358"/>
<path d="M59.4436 0.230431V12.82H58.4127L51.7055 6.31904V12.5936H48.4833V0.00402832H49.5142L56.2214 6.41203V0.230431H59.4436Z" fill="#46A358"/>
<path d="M63.2885 8.39711C64.0203 9.37145 64.7884 9.99001 66.0417 9.99001C66.8867 9.99001 67.3152 9.69083 67.3152 9.08844C67.3152 8.54669 67.0322 8.37689 66.0579 7.9443L64.7844 7.38234C62.7427 6.48077 61.6552 5.32046 61.6552 3.65478C61.6552 1.46353 63.4543 0 65.9811 0C68.0227 0 69.4661 0.97434 70.214 2.49043L68.0591 4.13993C67.4608 3.24241 66.8988 2.83003 66.0175 2.83003C65.3423 2.83003 64.9138 3.09282 64.9138 3.6184C64.9138 4.06716 65.1766 4.31378 65.9811 4.62912L67.4042 5.22747C69.559 6.12904 70.5698 7.21254 70.5698 8.95503C70.5698 11.3525 68.6009 12.816 66.0336 12.816C63.806 12.816 62.0069 11.7487 61.1054 10.0426L63.2885 8.39711Z" fill="#46A358"/>
<path d="M72.4174 0.230469H75.6396V4.7464H80.1554V0.230469H83.3775V12.5937H80.1554V7.6492H75.6396V12.5937H72.4174V0.230469Z" fill="#46A358"/>
<path d="M91.8677 0.00403384C95.4659 -0.0727812 98.6315 2.87045 98.5547 6.41203C98.6274 9.98999 95.4659 12.8766 91.8677 12.82C88.2534 12.8766 85.1403 9.98999 85.2172 6.41203C85.1403 2.87045 88.2534 -0.0687383 91.8677 0.00403384ZM91.8839 2.96344C89.8988 2.96344 88.5121 4.37036 88.5121 6.41203C88.5121 7.44297 88.8315 8.28389 89.4501 8.92267C90.0686 9.54123 90.8934 9.86062 91.8839 9.86062C93.7962 9.86062 95.2557 8.4739 95.2557 6.41203C95.2597 4.37036 93.7962 2.96344 91.8839 2.96344Z" fill="#46A358"/>
<path d="M100.399 0.230469H105.25C108.003 0.230469 110.029 1.91636 110.029 4.48361C110.029 7.01447 107.951 8.75292 105.25 8.75292H103.621V12.5937H100.399V0.230469ZM105.266 5.9431C106.164 5.9431 106.746 5.36092 106.746 4.48361C106.746 3.6063 106.164 3.04029 105.266 3.04029H103.617V5.9431H105.266Z" fill="#46A358"/>
</svg>
