<svg width="140" height="40" viewBox="0 0 140 40" fill="none" xmlns="http://www.w3.org/2000/svg">
<rect width="140" height="40" rx="6" fill="#46A358"/>
<path d="M26.48 23.856C27.296 25.28 28.768 26.192 30.56 26.192C32.672 26.192 34.256 24.96 34.256 23.024C34.256 21.6 33.424 20.72 31.648 19.936L30.448 19.408C29.552 19.008 29.216 18.752 29.216 18.192C29.216 17.536 29.776 17.168 30.528 17.168C31.328 17.168 32 17.568 32.544 18.384L34.016 17.248C33.36 16.032 32.144 15.248 30.528 15.248C28.528 15.248 27.024 16.432 27.024 18.24C27.024 19.648 27.968 20.56 29.584 21.28L30.72 21.792C31.728 22.256 32.064 22.48 32.064 23.104C32.064 23.824 31.504 24.272 30.56 24.272C29.408 24.272 28.656 23.68 27.968 22.736L26.48 23.856ZM36.1535 26H38.3135V21.44H42.9855V26H45.1455V15.44H42.9855V19.488H38.3135V15.44H36.1535V26ZM46.9518 20.72C46.9038 23.744 49.5118 26.256 52.5518 26.192C55.5918 26.256 58.2318 23.744 58.1838 20.72C58.2318 17.696 55.5918 15.184 52.5518 15.248C49.5118 15.184 46.9038 17.696 46.9518 20.72ZM55.9598 20.72C55.9598 22.752 54.5038 24.192 52.5678 24.192C50.6158 24.192 49.1758 22.752 49.1758 20.72C49.1758 18.688 50.6158 17.248 52.5678 17.248C54.5038 17.248 55.9598 18.72 55.9598 20.72ZM60.0129 26H62.1729V22.272H63.9809C66.1889 22.272 67.7889 20.864 67.7889 18.848C67.7889 16.816 66.1889 15.44 63.9809 15.44H60.0129V26ZM62.1729 20.384V17.344H63.9809C64.9569 17.344 65.5809 17.952 65.5809 18.848C65.5809 19.76 64.9889 20.384 63.9809 20.384H62.1729ZM80.3449 15.44V21.744L74.2169 15.248H73.5129V26H75.6729V19.664L81.7849 26.192H82.5049V15.44H80.3449ZM84.3111 20.72C84.2631 23.744 86.8711 26.256 89.9111 26.192C92.9511 26.256 95.5911 23.744 95.5431 20.72C95.5911 17.696 92.9511 15.184 89.9111 15.248C86.8711 15.184 84.2631 17.696 84.3111 20.72ZM93.3191 20.72C93.3191 22.752 91.8631 24.192 89.9271 24.192C87.9751 24.192 86.5351 22.752 86.5351 20.72C86.5351 18.688 87.9751 17.248 89.9271 17.248C91.8631 17.248 93.3191 18.72 93.3191 20.72ZM109.604 15.44L107.252 21.648L104.484 15.248H103.764L100.996 21.68L98.6438 15.44H96.2438L100.468 26.192H101.172L104.132 19.568L107.076 26.192H107.78L112.004 15.44H109.604Z" fill="white"/>
</svg>
